General
Complete name                    : Capone.1975.avi
Format                           : AVI
File size                        : 907 MiB
Duration                         : 1h 37mn
Overall bit rate                 : 1 305 Kbps

Video
Codec ID/Hint                    : XviD
Duration                         : 1h 37mn
Bit rate                         : 1 180 Kbps
Width                            : 720 pixels
Height                           : 556 pixels
Display aspect ratio             : 16:9
Stream size                      : 820 MiB (90%)
Writing library                  : XviD 1.1.2 (UTC 2006-11-01)

Audio

Codec ID/Hint                    : MP3
Duration                         : 1h 37mn
Bit rate                         : 112 Kbps
Channel(s)                       : 2 channels
Sampling rate                    : 48.0 KHz
Stream size                      : 77.8 MiB (9%)
Alignment                        : Split accross interleaves
Interleave, duration             : 24 ms (0.60 video frame)
Writing library                  : LAME3.98


Text:**********English ,German ,Spanish ,Swedish ,Danish ,Finnish ,Norwegian

